<svg width="24" height="24" viewBox="0 0 24 24" fill="none" xmlns="http://www.w3.org/2000/svg">
<path fill-rule="evenodd" clip-rule="evenodd" d="M12.8119 1.97986C13.4992 1.97891 14.092 1.97808 14.6315 2.18762C15.1001 2.3691 15.5174 2.6688 15.8434 3.05405L15.8504 3.06239C16.0612 3.31707 16.1992 3.59295 16.3141 3.87348C16.4139 4.11712 16.515 4.41324 16.6289 4.74722C16.6412 4.78324 16.6537 4.81971 16.6663 4.85659L16.7152 5H17.6691C17.7582 4.97396 17.8525 4.96 17.95 4.96C18.0475 4.96 18.1418 4.97396 18.2309 5H20C20.5523 5 21 5.44771 21 6C21 6.55228 20.5523 7 20 7H18.95V16.2017C18.95 17.0062 18.95 17.6709 18.9054 18.2122C18.859 18.7747 18.7593 19.2925 18.5088 19.7783L18.508 19.7799C18.1223 20.5246 17.5108 21.1359 16.7535 21.5213L16.7417 21.5272C16.2566 21.7661 15.7427 21.862 15.1808 21.9068C14.6395 21.95 13.976 21.95 13.1703 21.95H10.6882C9.87878 21.95 9.21173 21.95 8.66923 21.9054C8.10645 21.8591 7.58925 21.7597 7.10399 21.51C6.34658 21.124 5.73424 20.5112 5.34872 19.7535C5.10105 19.2656 5.00106 18.7476 4.95462 18.1833C4.90998 17.6408 4.90999 16.9762 4.91 16.1714L4.91 7H4C3.44772 7 3 6.55228 3 6C3 5.44771 3.44772 5 4 5H5.54171C5.65569 4.95482 5.77995 4.93 5.91 4.93C6.04005 4.93 6.16431 4.95482 6.27829 5H7.22379L7.28243 4.83035C7.2958 4.78972 7.30902 4.74937 7.32214 4.70932C7.53718 4.05295 7.72658 3.47483 8.11259 3.02706L8.11925 3.01933C8.43335 2.6624 8.83583 2.35856 9.32888 2.17367L9.33181 2.17257C9.85527 1.97814 10.4502 1.97894 11.1359 1.97987C11.1835 1.97993 11.2315 1.98 11.28 1.98H12.67C12.7177 1.98 12.765 1.97993 12.8119 1.97986ZM9.33503 5H14.6007C14.5491 4.85306 14.5055 4.73429 14.4634 4.63151C14.3883 4.44828 14.342 4.37758 14.3126 4.34117C14.1993 4.20896 14.0584 4.11041 13.909 4.05256L13.9076 4.052C13.7641 3.99622 13.5814 3.98 12.67 3.98H11.28C10.3698 3.98 10.1697 3.99525 10.0296 4.04691C9.88467 4.10156 9.74891 4.19615 9.62447 4.33637C9.55548 4.41767 9.49534 4.535 9.33503 5ZM15.9767 7H6.91V16.13C6.91 16.9866 6.91079 17.5685 6.94788 18.0192C6.98391 18.457 7.04923 18.6848 7.13146 18.8469C7.32552 19.2281 7.63216 19.5347 8.01346 19.7287L8.0183 19.7312C8.17237 19.8106 8.39443 19.876 8.83327 19.9121C9.28397 19.9492 9.86831 19.95 10.73 19.95H13.13C13.9861 19.95 14.5694 19.9493 15.0217 19.9132C15.4574 19.8784 15.6882 19.8154 15.8528 19.7355C16.2322 19.5408 16.5383 19.2338 16.7316 18.861C16.8109 18.7068 16.8761 18.4846 16.9121 18.0478C16.9492 17.5984 16.95 17.0167 16.95 16.16V7H16.0232C16.0076 7.00036 15.9921 7.00036 15.9767 7ZM9.91 8.93C10.4623 8.93 10.91 9.37771 10.91 9.93V16.93C10.91 17.4823 10.4623 17.93 9.91 17.93C9.35772 17.93 8.91 17.4823 8.91 16.93V9.93C8.91 9.37771 9.35772 8.93 9.91 8.93ZM13.91 8.93C14.4623 8.93 14.91 9.37771 14.91 9.93V16.93C14.91 17.4823 14.4623 17.93 13.91 17.93C13.3577 17.93 12.91 17.4823 12.91 16.93V9.93C12.91 9.37771 13.3577 8.93 13.91 8.93Z" fill="#000000"/>
</svg>
